<svg xmlns="http://www.w3.org/2000/svg" version="1.1" xmlns:xlink="http://www.w3.org/1999/xlink" xmlns:svgjs="http://svgjs.dev/svgjs" width="2000" height="1500" viewBox="0 0 2000 1500"><rect width="2000" height="1500" fill="#000000"></rect><g transform="matrix(0.75,0,0,0.75,249.090909090909,282.7536437246963)"><svg viewBox="0 0 396 247" data-background-color="#000000" preserveAspectRatio="xMidYMid meet" height="1247" width="2000" xmlns="http://www.w3.org/2000/svg" xmlns:xlink="http://www.w3.org/1999/xlink"><g id="tight-bounds" transform="matrix(1,0,0,1,0.2400000000000091,-0.09999999999999432)"><svg viewBox="0 0 395.52 247.2" height="247.2" width="395.52"><rect width="395.52" height="247.2" fill="url(#9ec637eb-e00a-413a-80c0-e282373753b4)" mask="url(#8b4b8e15-bb17-4963-834b-b7b69b74d2d8)" data-fill-palette-color="tertiary"></rect><g><svg></svg></g><g><svg viewBox="0 0 395.52 247.2" height="247.2" width="395.52"><mask id="5dac3ffe-6930-4b83-9d5f-9ba62194a0fd"><rect width="395.52" height="247.2" fill="white"></rect><g transform="matrix(1,0,0,1,0,106.80367331576966)" id="clone"><svg viewBox="0 0 395.52 33.59265336846067" height="33.59265336846067" width="395.52"><g><svg viewBox="0 0 395.52 33.59265336846067" height="33.59265336846067" width="395.52"><g><svg viewBox="0 0 395.52 33.59265336846067" height="33.59265336846067" width="395.52"><g><svg viewBox="0 0 395.52 33.59265336846067" height="33.59265336846067" width="395.52"><g id="SvgjsG1053"><svg viewBox="0 0 395.52 33.59265336846067" height="33.59265336846067" width="395.52" id="SvgjsSvg1052"><g><svg viewBox="0 0 395.52 33.59265336846067" height="33.59265336846067" width="395.52"><g transform="matrix(1,0,0,1,0,0)"><svg width="395.52" viewBox="2 -31.8 399.52 34.85" height="33.59265336846067" data-palette-color="url(#97cdb5b9-2546-439f-9f41-41f3a7e0b4ef)"><path d="M5-28.75L5-28.75 10.7-28.75 21-19.05 21-11.5 11.3-20.65 11.3 0 5 0 5-28.75ZM39.45-28.75L39.45-28.75 33.8-28.75 23.45-19.05 23.45-11.5 33.15-20.65 33.15 0 39.45 0 39.45-28.75ZM44.45-3.5L44.45-18.55 50.3-22 58.2-22 58.2-17.3 50.7-17.3 50.7-5.4 58.2-5.4 58.2-0.05 50.3-0.05 44.45-3.5ZM73.8-3.5L73.8-18.55 67.95-22 60-22 60-17.3 67.55-17.3 67.55-5.4 60-5.4 60-0.05 67.95-0.05 73.8-3.5ZM78.3-20.05L84.6-21.85 92.85-9.3 92.85 0 90.9 0 78.3-20.05ZM109.3-20.05L103.25-21.85 95.35-9.3 95.35 0 97.15 0 109.3-20.05ZM113.79-22L120.09-22 120.09 0.05 113.79 0.05 113.79-22ZM119.99-28.7L119.99-24.05 113.79-24.05 113.79-28.7 119.99-28.7ZM158.29-18.55L158.29-12.85 152.39-9.4 144.39-9.4 144.39-13.25 151.94-13.25 151.94-17.35 144.39-17.35 144.39-22.05 152.39-22.05 158.29-18.55ZM151.74-6.95L158.29-6.95 158.29-3.45 152.39 0 144.39 0 144.39-5.3 151.74-5.3 151.74-6.95ZM128.09-18.55L128.09-3.45 133.99 0 141.94 0 141.94-5.3 134.39-5.3 134.39-9.4 141.94-9.4 141.94-13.25 134.39-13.25 134.39-17.35 141.94-17.35 141.94-22.05 133.99-22.05 128.09-18.55ZM166.29-2.95L178.24-2.95 178.24 0 166.29 0 166.29-2.95ZM187.24-28.75L187.24-28.75 192.94-28.75 203.24-19.05 203.24-11.5 193.54-20.65 193.54 0 187.24 0 187.24-28.75ZM221.69-28.75L221.69-28.75 216.04-28.75 205.69-19.05 205.69-11.5 215.39-20.65 215.39 0 221.69 0 221.69-28.75ZM262.73-28.8L262.73-0.05 256.88-0.05 256.88-11.4 246.53-11.4 246.53-17.25 256.88-17.25 256.88-28.8 262.73-28.8ZM244.88-28.6L238.03-17.25 244.08-17.25 244.08-11.4 227.68-11.4 238.03-28.6 244.88-28.6ZM300.03-9.7L300.03-3.45 294.33 0 286.28 0 286.28-5.25 293.98-5.25 293.98-9.3 286.43-9.3 286.43-13.2 294.33-13.2 300.03-9.7ZM270.23-12.75L270.23-18.4 275.93-21.85 284.03-21.85 284.03-17.2 276.53-17.2 276.53-13.2 284.03-13.2 284.03-9.3 275.93-9.3 270.23-12.75ZM270.23-6.95L276.53-6.95 276.53-5.25 284.03-5.25 284.03 0 275.93 0 270.23-3.45 270.23-6.95ZM300.03-15.05L293.78-15.05 293.78-17.2 286.28-17.2 286.28-21.85 294.33-21.85 300.03-18.4 300.03-15.05ZM317.53-17.2L317.53-21.85 325.03-21.85 325.03-17.2 317.53-17.2ZM325.03-7.5L331.33-7.5 331.33-3.45 325.63 0 317.53 0 317.53-5.25 325.03-5.25 325.03-7.5ZM304.53-19.35L315.28-25.3 315.28-5.25 315.28 0 309.03-3.45 309.03-17.2 304.53-17.15 304.53-19.35ZM367.03-18.55L367.03-12.85 361.13-9.4 353.13-9.4 353.13-13.25 360.68-13.25 360.68-17.35 353.13-17.35 353.13-22.05 361.13-22.05 367.03-18.55ZM360.48-6.95L367.03-6.95 367.03-3.45 361.13 0 353.13 0 353.13-5.3 360.48-5.3 360.48-6.95ZM336.83-18.55L336.83-3.45 342.73 0 350.68 0 350.68-5.3 343.13-5.3 343.13-9.4 350.68-9.4 350.68-13.25 343.13-13.25 343.13-17.35 350.68-17.35 350.68-22.05 342.73-22.05 336.83-18.55ZM376.02 0L376.02-21.85 382.27-21.85 382.27-19.7 389.77-21.85 389.77-17.2 382.27-17.2 382.27 0 376.02 0ZM398.52-15.05L398.52-19.1 392.02-21.85 392.02-15.05 398.52-15.05Z" opacity="1" transform="matrix(1,0,0,1,0,0)" fill="black" class="wordmark-text-0" id="SvgjsPath1051" stroke-width="5" stroke="black" stroke-linejoin="round"></path></svg></g></svg></g></svg></g></svg></g></svg></g></svg></g></svg></g></mask><g mask="url(#5dac3ffe-6930-4b83-9d5f-9ba62194a0fd)"><g><path d="M49.655 0v0h49.01l88.562 83.403v64.917l-83.403-78.674v177.554h-54.169zM345.865 0v0h-48.58l-88.992 83.403v64.917l83.403-78.674v177.554h54.169z" fill="url(#9ec637eb-e00a-413a-80c0-e282373753b4)" fill-rule="nonzero" stroke="none" stroke-width="1" stroke-linecap="butt" stroke-linejoin="miter" stroke-miterlimit="10" stroke-dasharray="" stroke-dashoffset="0" font-family="none" font-weight="none" font-size="none" text-anchor="none" style="mix-blend-mode: normal" data-fill-palette-color="tertiary"></path></g></g><g transform="matrix(1,0,0,1,0,106.80367331576966)"><svg viewBox="0 0 395.52 33.59265336846067" height="33.59265336846067" width="395.52"><g><svg viewBox="0 0 395.52 33.59265336846067" height="33.59265336846067" width="395.52"><g><svg viewBox="0 0 395.52 33.59265336846067" height="33.59265336846067" width="395.52"><g><svg viewBox="0 0 395.52 33.59265336846067" height="33.59265336846067" width="395.52"><g id="textblocktransform"><svg viewBox="0 0 395.52 33.59265336846067" height="33.59265336846067" width="395.52" id="textblock"><g><svg viewBox="0 0 395.52 33.59265336846067" height="33.59265336846067" width="395.52"><g transform="matrix(1,0,0,1,0,0)"><svg width="395.52" viewBox="2 -31.8 399.52 34.85" height="33.59265336846067" data-palette-color="url(#97cdb5b9-2546-439f-9f41-41f3a7e0b4ef)"></svg></g></svg></g></svg></g></svg></g></svg></g></svg></g></svg></g></svg></g><defs></defs><mask id="b5aa7051-4e31-4e7f-9b9c-fb4e6f6c8944"><g id="SvgjsG1063"><svg viewBox="0 0 395.52 247.2" height="247.2" width="395.52"><g><svg></svg></g><g><svg viewBox="0 0 395.52 247.2" height="247.2" width="395.52"><mask id="SvgjsMask1062"><rect width="395.52" height="247.2" fill="black"></rect><g transform="matrix(1,0,0,1,0,106.80367331576966)" id="SvgjsG1061"><svg viewBox="0 0 395.52 33.59265336846067" height="33.59265336846067" width="395.52"><g><svg viewBox="0 0 395.52 33.59265336846067" height="33.59265336846067" width="395.52"><g><svg viewBox="0 0 395.52 33.59265336846067" height="33.59265336846067" width="395.52"><g><svg viewBox="0 0 395.52 33.59265336846067" height="33.59265336846067" width="395.52"><g id="SvgjsG1060"><svg viewBox="0 0 395.52 33.59265336846067" height="33.59265336846067" width="395.52" id="SvgjsSvg1059"><g><svg viewBox="0 0 395.52 33.59265336846067" height="33.59265336846067" width="395.52"><g transform="matrix(1,0,0,1,0,0)"><svg width="395.52" viewBox="2 -31.8 399.52 34.85" height="33.59265336846067" data-palette-color="url(#97cdb5b9-2546-439f-9f41-41f3a7e0b4ef)"><path d="M5-28.75L5-28.75 10.7-28.75 21-19.05 21-11.5 11.3-20.65 11.3 0 5 0 5-28.75ZM39.45-28.75L39.45-28.75 33.8-28.75 23.45-19.05 23.45-11.5 33.15-20.65 33.15 0 39.45 0 39.45-28.75ZM44.45-3.5L44.45-18.55 50.3-22 58.2-22 58.2-17.3 50.7-17.3 50.7-5.4 58.2-5.4 58.2-0.05 50.3-0.05 44.45-3.5ZM73.8-3.5L73.8-18.55 67.95-22 60-22 60-17.3 67.55-17.3 67.55-5.4 60-5.4 60-0.05 67.95-0.05 73.8-3.5ZM78.3-20.05L84.6-21.85 92.85-9.3 92.85 0 90.9 0 78.3-20.05ZM109.3-20.05L103.25-21.85 95.35-9.3 95.35 0 97.15 0 109.3-20.05ZM113.79-22L120.09-22 120.09 0.05 113.79 0.05 113.79-22ZM119.99-28.7L119.99-24.05 113.79-24.05 113.79-28.7 119.99-28.7ZM158.29-18.55L158.29-12.85 152.39-9.4 144.39-9.4 144.39-13.25 151.94-13.25 151.94-17.35 144.39-17.35 144.39-22.05 152.39-22.05 158.29-18.55ZM151.74-6.95L158.29-6.95 158.29-3.45 152.39 0 144.39 0 144.39-5.3 151.74-5.3 151.74-6.95ZM128.09-18.55L128.09-3.45 133.99 0 141.94 0 141.94-5.3 134.39-5.3 134.39-9.4 141.94-9.4 141.94-13.25 134.39-13.25 134.39-17.35 141.94-17.35 141.94-22.05 133.99-22.05 128.09-18.55ZM166.29-2.95L178.24-2.95 178.24 0 166.29 0 166.29-2.95ZM187.24-28.75L187.24-28.75 192.94-28.75 203.24-19.05 203.24-11.5 193.54-20.65 193.54 0 187.24 0 187.24-28.75ZM221.69-28.75L221.69-28.75 216.04-28.75 205.69-19.05 205.69-11.5 215.39-20.65 215.39 0 221.69 0 221.69-28.75ZM262.73-28.8L262.73-0.05 256.88-0.05 256.88-11.4 246.53-11.4 246.53-17.25 256.88-17.25 256.88-28.8 262.73-28.8ZM244.88-28.6L238.03-17.25 244.08-17.25 244.08-11.4 227.68-11.4 238.03-28.6 244.88-28.6ZM300.03-9.7L300.03-3.45 294.33 0 286.28 0 286.28-5.25 293.98-5.25 293.98-9.3 286.43-9.3 286.43-13.2 294.33-13.2 300.03-9.7ZM270.23-12.75L270.23-18.4 275.93-21.85 284.03-21.85 284.03-17.2 276.53-17.2 276.53-13.2 284.03-13.2 284.03-9.3 275.93-9.3 270.23-12.75ZM270.23-6.95L276.53-6.95 276.53-5.25 284.03-5.25 284.03 0 275.93 0 270.23-3.45 270.23-6.95ZM300.03-15.05L293.78-15.05 293.78-17.2 286.28-17.2 286.28-21.85 294.33-21.85 300.03-18.4 300.03-15.05ZM317.53-17.2L317.53-21.85 325.03-21.85 325.03-17.2 317.53-17.2ZM325.03-7.5L331.33-7.5 331.33-3.45 325.63 0 317.53 0 317.53-5.25 325.03-5.25 325.03-7.5ZM304.53-19.35L315.28-25.3 315.28-5.25 315.28 0 309.03-3.45 309.03-17.2 304.53-17.15 304.53-19.35ZM367.03-18.55L367.03-12.85 361.13-9.4 353.13-9.4 353.13-13.25 360.68-13.25 360.68-17.35 353.13-17.35 353.13-22.05 361.13-22.05 367.03-18.55ZM360.48-6.95L367.03-6.95 367.03-3.45 361.13 0 353.13 0 353.13-5.3 360.48-5.3 360.48-6.95ZM336.83-18.55L336.83-3.45 342.73 0 350.68 0 350.68-5.3 343.13-5.3 343.13-9.4 350.68-9.4 350.68-13.25 343.13-13.25 343.13-17.35 350.68-17.35 350.68-22.05 342.73-22.05 336.83-18.55ZM376.02 0L376.02-21.85 382.27-21.85 382.27-19.7 389.77-21.85 389.77-17.2 382.27-17.2 382.27 0 376.02 0ZM398.52-15.05L398.52-19.1 392.02-21.85 392.02-15.05 398.52-15.05Z" opacity="1" transform="matrix(1,0,0,1,0,0)" fill="black" class="wordmark-text-0" id="SvgjsPath1058" stroke-width="5" stroke="black" stroke-linejoin="round"></path></svg></g></svg></g></svg></g></svg></g></svg></g></svg></g></svg></g></mask><g mask="url(#5dac3ffe-6930-4b83-9d5f-9ba62194a0fd)"><g><path d="M49.655 0v0h49.01l88.562 83.403v64.917l-83.403-78.674v177.554h-54.169zM345.865 0v0h-48.58l-88.992 83.403v64.917l83.403-78.674v177.554h54.169z" fill="black" fill-rule="nonzero" stroke="none" stroke-width="1" stroke-linecap="butt" stroke-linejoin="miter" stroke-miterlimit="10" stroke-dasharray="" stroke-dashoffset="0" font-family="none" font-weight="none" font-size="none" text-anchor="none" style="mix-blend-mode: normal"></path></g></g><g transform="matrix(1,0,0,1,0,106.80367331576966)"><svg viewBox="0 0 395.52 33.59265336846067" height="33.59265336846067" width="395.52"><g><svg viewBox="0 0 395.52 33.59265336846067" height="33.59265336846067" width="395.52"><g><svg viewBox="0 0 395.52 33.59265336846067" height="33.59265336846067" width="395.52"><g><svg viewBox="0 0 395.52 33.59265336846067" height="33.59265336846067" width="395.52"><g id="SvgjsG1057"><svg viewBox="0 0 395.52 33.59265336846067" height="33.59265336846067" width="395.52" id="SvgjsSvg1056"><g><svg viewBox="0 0 395.52 33.59265336846067" height="33.59265336846067" width="395.52"><g transform="matrix(1,0,0,1,0,0)"><svg width="395.52" viewBox="2 -31.8 399.52 34.85" height="33.59265336846067" data-palette-color="url(#97cdb5b9-2546-439f-9f41-41f3a7e0b4ef)"><path d="M5-28.75L5-28.75 10.7-28.75 21-19.05 21-11.5 11.3-20.65 11.3 0 5 0 5-28.75ZM39.45-28.75L39.45-28.75 33.8-28.75 23.45-19.05 23.45-11.5 33.15-20.65 33.15 0 39.45 0 39.45-28.75ZM44.45-3.5L44.45-18.55 50.3-22 58.2-22 58.2-17.3 50.7-17.3 50.7-5.4 58.2-5.4 58.2-0.05 50.3-0.05 44.45-3.5ZM73.8-3.5L73.8-18.55 67.95-22 60-22 60-17.3 67.55-17.3 67.55-5.4 60-5.4 60-0.05 67.95-0.05 73.8-3.5ZM78.3-20.05L84.6-21.85 92.85-9.3 92.85 0 90.9 0 78.3-20.05ZM109.3-20.05L103.25-21.85 95.35-9.3 95.35 0 97.15 0 109.3-20.05ZM113.79-22L120.09-22 120.09 0.05 113.79 0.05 113.79-22ZM119.99-28.7L119.99-24.05 113.79-24.05 113.79-28.7 119.99-28.7ZM158.29-18.55L158.29-12.85 152.39-9.4 144.39-9.4 144.39-13.25 151.94-13.25 151.94-17.35 144.39-17.35 144.39-22.05 152.39-22.05 158.29-18.55ZM151.74-6.95L158.29-6.95 158.29-3.45 152.39 0 144.39 0 144.39-5.3 151.74-5.3 151.74-6.95ZM128.09-18.55L128.09-3.45 133.99 0 141.94 0 141.94-5.3 134.39-5.3 134.39-9.4 141.94-9.4 141.94-13.25 134.39-13.25 134.39-17.35 141.94-17.35 141.94-22.05 133.99-22.05 128.09-18.55ZM166.29-2.95L178.24-2.95 178.24 0 166.29 0 166.29-2.95ZM187.24-28.75L187.24-28.75 192.94-28.75 203.24-19.05 203.24-11.5 193.54-20.65 193.54 0 187.24 0 187.24-28.75ZM221.69-28.75L221.69-28.75 216.04-28.75 205.69-19.05 205.69-11.5 215.39-20.65 215.39 0 221.69 0 221.69-28.75ZM262.73-28.8L262.73-0.05 256.88-0.05 256.88-11.4 246.53-11.4 246.53-17.25 256.88-17.25 256.88-28.8 262.73-28.8ZM244.88-28.6L238.03-17.25 244.08-17.25 244.08-11.4 227.68-11.4 238.03-28.6 244.88-28.6ZM300.03-9.7L300.03-3.45 294.33 0 286.28 0 286.28-5.25 293.98-5.25 293.98-9.3 286.43-9.3 286.43-13.2 294.33-13.2 300.03-9.7ZM270.23-12.75L270.23-18.4 275.93-21.85 284.03-21.85 284.03-17.2 276.53-17.2 276.53-13.2 284.03-13.2 284.03-9.3 275.93-9.3 270.23-12.75ZM270.23-6.95L276.53-6.95 276.53-5.25 284.03-5.25 284.03 0 275.93 0 270.23-3.45 270.23-6.95ZM300.03-15.05L293.78-15.05 293.78-17.2 286.28-17.2 286.28-21.85 294.33-21.85 300.03-18.4 300.03-15.05ZM317.53-17.2L317.53-21.85 325.03-21.85 325.03-17.2 317.53-17.2ZM325.03-7.5L331.33-7.5 331.33-3.45 325.63 0 317.53 0 317.53-5.25 325.03-5.25 325.03-7.5ZM304.53-19.35L315.28-25.3 315.28-5.25 315.28 0 309.03-3.45 309.03-17.2 304.53-17.15 304.53-19.35ZM367.03-18.55L367.03-12.85 361.13-9.4 353.13-9.4 353.13-13.25 360.68-13.25 360.68-17.35 353.13-17.35 353.13-22.05 361.13-22.05 367.03-18.55ZM360.48-6.95L367.03-6.95 367.03-3.45 361.13 0 353.13 0 353.13-5.3 360.48-5.3 360.48-6.95ZM336.83-18.55L336.83-3.45 342.73 0 350.68 0 350.68-5.3 343.13-5.3 343.13-9.4 350.68-9.4 350.68-13.25 343.13-13.25 343.13-17.35 350.68-17.35 350.68-22.05 342.73-22.05 336.83-18.55ZM376.02 0L376.02-21.85 382.27-21.85 382.27-19.7 389.77-21.85 389.77-17.2 382.27-17.2 382.27 0 376.02 0ZM398.52-15.05L398.52-19.1 392.02-21.85 392.02-15.05 398.52-15.05Z" opacity="1" transform="matrix(1,0,0,1,0,0)" fill="white" class="wordmark-text-0" id="SvgjsPath1055"></path></svg></g></svg></g></svg></g></svg></g></svg></g></svg></g></svg></g></svg></g><defs><mask></mask></defs></svg><rect width="395.52" height="247.2" fill="black" stroke="none" visibility="hidden"></rect></g></mask><linearGradient x1="0" x2="1" y1="0.5" y2="0.5" id="97cdb5b9-2546-439f-9f41-41f3a7e0b4ef"><stop stop-color="#f00b51" offset="0"></stop><stop stop-color="#730062" offset="1"></stop></linearGradient><rect width="395.52" height="247.2" fill="url(#97cdb5b9-2546-439f-9f41-41f3a7e0b4ef)" mask="url(#b5aa7051-4e31-4e7f-9b9c-fb4e6f6c8944)" data-fill-palette-color="primary"></rect><mask id="8b4b8e15-bb17-4963-834b-b7b69b74d2d8"><g id="SvgjsG1116"><svg viewBox="0 0 395.52 247.2" height="247.2" width="395.52"><g><svg></svg></g><g><svg viewBox="0 0 395.52 247.2" height="247.2" width="395.52"><mask id="SvgjsMask1115"><rect width="395.52" height="247.2" fill="black"></rect><g transform="matrix(1,0,0,1,0,106.80367331576966)" id="SvgjsG1114"><svg viewBox="0 0 395.52 33.59265336846067" height="33.59265336846067" width="395.52"><g><svg viewBox="0 0 395.52 33.59265336846067" height="33.59265336846067" width="395.52"><g><svg viewBox="0 0 395.52 33.59265336846067" height="33.59265336846067" width="395.52"><g><svg viewBox="0 0 395.52 33.59265336846067" height="33.59265336846067" width="395.52"><g id="SvgjsG1113"><svg viewBox="0 0 395.52 33.59265336846067" height="33.59265336846067" width="395.52" id="SvgjsSvg1112"><g><svg viewBox="0 0 395.52 33.59265336846067" height="33.59265336846067" width="395.52"><g transform="matrix(1,0,0,1,0,0)"><svg width="395.52" viewBox="2 -31.8 399.52 34.85" height="33.59265336846067" data-palette-color="url(#97cdb5b9-2546-439f-9f41-41f3a7e0b4ef)"><path d="M5-28.75L5-28.75 10.7-28.75 21-19.05 21-11.5 11.3-20.65 11.3 0 5 0 5-28.75ZM39.45-28.75L39.45-28.75 33.8-28.75 23.45-19.05 23.45-11.5 33.15-20.65 33.15 0 39.45 0 39.45-28.75ZM44.45-3.5L44.45-18.55 50.3-22 58.2-22 58.2-17.3 50.7-17.3 50.7-5.4 58.2-5.4 58.2-0.05 50.3-0.05 44.45-3.5ZM73.8-3.5L73.8-18.55 67.95-22 60-22 60-17.3 67.55-17.3 67.55-5.4 60-5.4 60-0.05 67.95-0.05 73.8-3.5ZM78.3-20.05L84.6-21.85 92.85-9.3 92.85 0 90.9 0 78.3-20.05ZM109.3-20.05L103.25-21.85 95.35-9.3 95.35 0 97.15 0 109.3-20.05ZM113.79-22L120.09-22 120.09 0.05 113.79 0.05 113.79-22ZM119.99-28.7L119.99-24.05 113.79-24.05 113.79-28.7 119.99-28.7ZM158.29-18.55L158.29-12.85 152.39-9.4 144.39-9.4 144.39-13.25 151.94-13.25 151.94-17.35 144.39-17.35 144.39-22.05 152.39-22.05 158.29-18.55ZM151.74-6.95L158.29-6.95 158.29-3.45 152.39 0 144.39 0 144.39-5.3 151.74-5.3 151.74-6.95ZM128.09-18.55L128.09-3.45 133.99 0 141.94 0 141.94-5.3 134.39-5.3 134.39-9.4 141.94-9.4 141.94-13.25 134.39-13.25 134.39-17.35 141.94-17.35 141.94-22.05 133.99-22.05 128.09-18.55ZM166.29-2.95L178.24-2.95 178.24 0 166.29 0 166.29-2.95ZM187.24-28.75L187.24-28.75 192.94-28.75 203.24-19.05 203.24-11.5 193.54-20.65 193.54 0 187.24 0 187.24-28.75ZM221.69-28.75L221.69-28.75 216.04-28.75 205.69-19.05 205.69-11.5 215.39-20.65 215.39 0 221.69 0 221.69-28.75ZM262.73-28.8L262.73-0.05 256.88-0.05 256.88-11.4 246.53-11.4 246.53-17.25 256.88-17.25 256.88-28.8 262.73-28.8ZM244.88-28.6L238.03-17.25 244.08-17.25 244.08-11.4 227.68-11.4 238.03-28.6 244.88-28.6ZM300.03-9.7L300.03-3.45 294.33 0 286.28 0 286.28-5.25 293.98-5.25 293.98-9.3 286.43-9.3 286.43-13.2 294.33-13.2 300.03-9.7ZM270.23-12.75L270.23-18.4 275.93-21.85 284.03-21.85 284.03-17.2 276.53-17.2 276.53-13.2 284.03-13.2 284.03-9.3 275.93-9.3 270.23-12.75ZM270.23-6.95L276.53-6.95 276.53-5.25 284.03-5.25 284.03 0 275.93 0 270.23-3.45 270.23-6.95ZM300.03-15.05L293.78-15.05 293.78-17.2 286.28-17.2 286.28-21.85 294.33-21.85 300.03-18.4 300.03-15.05ZM317.53-17.2L317.53-21.85 325.03-21.85 325.03-17.2 317.53-17.2ZM325.03-7.5L331.33-7.5 331.33-3.45 325.63 0 317.53 0 317.53-5.25 325.03-5.25 325.03-7.5ZM304.53-19.35L315.28-25.3 315.28-5.25 315.28 0 309.03-3.45 309.03-17.2 304.53-17.15 304.53-19.35ZM367.03-18.55L367.03-12.85 361.13-9.4 353.13-9.4 353.13-13.25 360.68-13.25 360.68-17.35 353.13-17.35 353.13-22.05 361.13-22.05 367.03-18.55ZM360.48-6.95L367.03-6.95 367.03-3.45 361.13 0 353.13 0 353.13-5.3 360.48-5.3 360.48-6.95ZM336.83-18.55L336.83-3.45 342.73 0 350.68 0 350.68-5.3 343.13-5.3 343.13-9.4 350.68-9.4 350.68-13.25 343.13-13.25 343.13-17.35 350.68-17.35 350.68-22.05 342.73-22.05 336.83-18.55ZM376.02 0L376.02-21.85 382.27-21.85 382.27-19.7 389.77-21.85 389.77-17.2 382.27-17.2 382.27 0 376.02 0ZM398.52-15.05L398.52-19.1 392.02-21.85 392.02-15.05 398.52-15.05Z" opacity="1" transform="matrix(1,0,0,1,0,0)" fill="black" class="wordmark-text-0" id="SvgjsPath1111" stroke-width="5" stroke="black" stroke-linejoin="round"></path></svg></g></svg></g></svg></g></svg></g></svg></g></svg></g></svg></g></mask><g mask="url(#5dac3ffe-6930-4b83-9d5f-9ba62194a0fd)"><g><path d="M49.655 0v0h49.01l88.562 83.403v64.917l-83.403-78.674v177.554h-54.169zM345.865 0v0h-48.58l-88.992 83.403v64.917l83.403-78.674v177.554h54.169z" fill="white" fill-rule="nonzero" stroke="none" stroke-width="1" stroke-linecap="butt" stroke-linejoin="miter" stroke-miterlimit="10" stroke-dasharray="" stroke-dashoffset="0" font-family="none" font-weight="none" font-size="none" text-anchor="none" style="mix-blend-mode: normal"></path></g></g><g transform="matrix(1,0,0,1,0,106.80367331576966)"><svg viewBox="0 0 395.52 33.59265336846067" height="33.59265336846067" width="395.52"><g><svg viewBox="0 0 395.52 33.59265336846067" height="33.59265336846067" width="395.52"><g><svg viewBox="0 0 395.52 33.59265336846067" height="33.59265336846067" width="395.52"><g><svg viewBox="0 0 395.52 33.59265336846067" height="33.59265336846067" width="395.52"><g id="SvgjsG1110"><svg viewBox="0 0 395.52 33.59265336846067" height="33.59265336846067" width="395.52" id="SvgjsSvg1109"><g><svg viewBox="0 0 395.52 33.59265336846067" height="33.59265336846067" width="395.52"><g transform="matrix(1,0,0,1,0,0)"><svg width="395.52" viewBox="2 -31.8 399.52 34.85" height="33.59265336846067" data-palette-color="url(#97cdb5b9-2546-439f-9f41-41f3a7e0b4ef)"></svg></g></svg></g></svg></g></svg></g></svg></g></svg></g></svg></g></svg></g><defs><mask></mask></defs><mask><g id="SvgjsG1108"><svg viewBox="0 0 395.52 247.2" height="247.2" width="395.52"><g><svg></svg></g><g><svg viewBox="0 0 395.52 247.2" height="247.2" width="395.52"><mask id="SvgjsMask1107"><rect width="395.52" height="247.2" fill="black"></rect><g transform="matrix(1,0,0,1,0,106.80367331576966)" id="SvgjsG1106"><svg viewBox="0 0 395.52 33.59265336846067" height="33.59265336846067" width="395.52"><g><svg viewBox="0 0 395.52 33.59265336846067" height="33.59265336846067" width="395.52"><g><svg viewBox="0 0 395.52 33.59265336846067" height="33.59265336846067" width="395.52"><g><svg viewBox="0 0 395.52 33.59265336846067" height="33.59265336846067" width="395.52"><g id="SvgjsG1105"><svg viewBox="0 0 395.52 33.59265336846067" height="33.59265336846067" width="395.52" id="SvgjsSvg1104"><g><svg viewBox="0 0 395.52 33.59265336846067" height="33.59265336846067" width="395.52"><g transform="matrix(1,0,0,1,0,0)"><svg width="395.52" viewBox="2 -31.8 399.52 34.85" height="33.59265336846067" data-palette-color="url(#97cdb5b9-2546-439f-9f41-41f3a7e0b4ef)"><path d="M5-28.75L5-28.75 10.7-28.75 21-19.05 21-11.5 11.3-20.65 11.3 0 5 0 5-28.75ZM39.45-28.75L39.45-28.75 33.8-28.75 23.45-19.05 23.45-11.5 33.15-20.65 33.15 0 39.45 0 39.45-28.75ZM44.45-3.5L44.45-18.55 50.3-22 58.2-22 58.2-17.3 50.7-17.3 50.7-5.4 58.2-5.4 58.2-0.05 50.3-0.05 44.45-3.5ZM73.8-3.5L73.8-18.55 67.95-22 60-22 60-17.3 67.55-17.3 67.55-5.4 60-5.4 60-0.05 67.95-0.05 73.8-3.5ZM78.3-20.05L84.6-21.85 92.85-9.3 92.85 0 90.9 0 78.3-20.05ZM109.3-20.05L103.25-21.85 95.35-9.3 95.35 0 97.15 0 109.3-20.05ZM113.79-22L120.09-22 120.09 0.05 113.79 0.05 113.79-22ZM119.99-28.7L119.99-24.05 113.79-24.05 113.79-28.7 119.99-28.7ZM158.29-18.55L158.29-12.85 152.39-9.4 144.39-9.4 144.39-13.25 151.94-13.25 151.94-17.35 144.39-17.35 144.39-22.05 152.39-22.05 158.29-18.55ZM151.74-6.95L158.29-6.95 158.29-3.45 152.39 0 144.39 0 144.39-5.3 151.74-5.3 151.74-6.95ZM128.09-18.55L128.09-3.45 133.99 0 141.94 0 141.94-5.3 134.39-5.3 134.39-9.4 141.94-9.4 141.94-13.25 134.39-13.25 134.39-17.35 141.94-17.35 141.94-22.05 133.99-22.05 128.09-18.55ZM166.29-2.95L178.24-2.95 178.24 0 166.29 0 166.29-2.95ZM187.24-28.75L187.24-28.75 192.94-28.75 203.24-19.05 203.24-11.5 193.54-20.65 193.54 0 187.24 0 187.24-28.75ZM221.69-28.75L221.69-28.75 216.04-28.75 205.69-19.05 205.69-11.5 215.39-20.65 215.39 0 221.69 0 221.69-28.75ZM262.73-28.8L262.73-0.05 256.88-0.05 256.88-11.4 246.53-11.4 246.53-17.25 256.88-17.25 256.88-28.8 262.73-28.8ZM244.88-28.6L238.03-17.25 244.08-17.25 244.08-11.4 227.68-11.4 238.03-28.6 244.88-28.6ZM300.03-9.7L300.03-3.45 294.33 0 286.28 0 286.28-5.25 293.98-5.25 293.98-9.3 286.43-9.3 286.43-13.2 294.33-13.2 300.03-9.7ZM270.23-12.75L270.23-18.4 275.93-21.85 284.03-21.85 284.03-17.2 276.53-17.2 276.53-13.2 284.03-13.2 284.03-9.3 275.93-9.3 270.23-12.75ZM270.23-6.95L276.53-6.95 276.53-5.25 284.03-5.25 284.03 0 275.93 0 270.23-3.45 270.23-6.95ZM300.03-15.05L293.78-15.05 293.78-17.2 286.28-17.2 286.28-21.85 294.33-21.85 300.03-18.4 300.03-15.05ZM317.53-17.2L317.53-21.85 325.03-21.85 325.03-17.2 317.53-17.2ZM325.03-7.5L331.33-7.5 331.33-3.45 325.63 0 317.53 0 317.53-5.25 325.03-5.25 325.03-7.5ZM304.53-19.35L315.28-25.3 315.28-5.25 315.28 0 309.03-3.45 309.03-17.2 304.53-17.15 304.53-19.35ZM367.03-18.55L367.03-12.85 361.13-9.4 353.13-9.4 353.13-13.25 360.68-13.25 360.68-17.35 353.13-17.35 353.13-22.05 361.13-22.05 367.03-18.55ZM360.48-6.95L367.03-6.95 367.03-3.45 361.13 0 353.13 0 353.13-5.3 360.48-5.3 360.48-6.95ZM336.83-18.55L336.83-3.45 342.73 0 350.68 0 350.68-5.3 343.13-5.3 343.13-9.4 350.68-9.4 350.68-13.25 343.13-13.25 343.13-17.35 350.68-17.35 350.68-22.05 342.73-22.05 336.83-18.55ZM376.02 0L376.02-21.85 382.27-21.85 382.27-19.7 389.77-21.85 389.77-17.2 382.27-17.2 382.27 0 376.02 0ZM398.52-15.05L398.52-19.1 392.02-21.85 392.02-15.05 398.52-15.05Z" opacity="1" transform="matrix(1,0,0,1,0,0)" fill="black" class="wordmark-text-0" id="SvgjsPath1103" stroke-width="5" stroke="black" stroke-linejoin="round"></path></svg></g></svg></g></svg></g></svg></g></svg></g></svg></g></svg></g></mask><g mask="url(#5dac3ffe-6930-4b83-9d5f-9ba62194a0fd)"><g><path d="M49.655 0v0h49.01l88.562 83.403v64.917l-83.403-78.674v177.554h-54.169zM345.865 0v0h-48.58l-88.992 83.403v64.917l83.403-78.674v177.554h54.169z" fill="black" fill-rule="nonzero" stroke="none" stroke-width="1" stroke-linecap="butt" stroke-linejoin="miter" stroke-miterlimit="10" stroke-dasharray="" stroke-dashoffset="0" font-family="none" font-weight="none" font-size="none" text-anchor="none" style="mix-blend-mode: normal"></path></g></g><g transform="matrix(1,0,0,1,0,106.80367331576966)"><svg viewBox="0 0 395.52 33.59265336846067" height="33.59265336846067" width="395.52"><g><svg viewBox="0 0 395.52 33.59265336846067" height="33.59265336846067" width="395.52"><g><svg viewBox="0 0 395.52 33.59265336846067" height="33.59265336846067" width="395.52"><g><svg viewBox="0 0 395.52 33.59265336846067" height="33.59265336846067" width="395.52"><g id="SvgjsG1102"><svg viewBox="0 0 395.52 33.59265336846067" height="33.59265336846067" width="395.52" id="SvgjsSvg1101"><g><svg viewBox="0 0 395.52 33.59265336846067" height="33.59265336846067" width="395.52"><g transform="matrix(1,0,0,1,0,0)"><svg width="395.52" viewBox="2 -31.8 399.52 34.85" height="33.59265336846067" data-palette-color="url(#97cdb5b9-2546-439f-9f41-41f3a7e0b4ef)"><path d="M5-28.75L5-28.75 10.7-28.75 21-19.05 21-11.5 11.3-20.65 11.3 0 5 0 5-28.75ZM39.45-28.75L39.45-28.75 33.8-28.75 23.45-19.05 23.45-11.5 33.15-20.65 33.15 0 39.45 0 39.45-28.75ZM44.45-3.5L44.45-18.55 50.3-22 58.2-22 58.2-17.3 50.7-17.3 50.7-5.4 58.2-5.4 58.2-0.05 50.3-0.05 44.45-3.5ZM73.8-3.5L73.8-18.55 67.95-22 60-22 60-17.3 67.55-17.3 67.55-5.4 60-5.4 60-0.05 67.95-0.05 73.8-3.5ZM78.3-20.05L84.6-21.85 92.85-9.3 92.85 0 90.9 0 78.3-20.05ZM109.3-20.05L103.25-21.85 95.35-9.3 95.35 0 97.15 0 109.3-20.05ZM113.79-22L120.09-22 120.09 0.05 113.79 0.05 113.79-22ZM119.99-28.7L119.99-24.05 113.79-24.05 113.79-28.7 119.99-28.7ZM158.29-18.55L158.29-12.85 152.39-9.4 144.39-9.4 144.39-13.25 151.94-13.25 151.94-17.35 144.39-17.35 144.39-22.05 152.39-22.05 158.29-18.55ZM151.74-6.95L158.29-6.95 158.29-3.45 152.39 0 144.39 0 144.39-5.3 151.74-5.3 151.74-6.95ZM128.09-18.55L128.09-3.45 133.99 0 141.94 0 141.94-5.3 134.39-5.3 134.39-9.4 141.94-9.4 141.94-13.25 134.39-13.25 134.39-17.35 141.94-17.35 141.94-22.05 133.99-22.05 128.09-18.55ZM166.29-2.95L178.24-2.95 178.24 0 166.29 0 166.29-2.95ZM187.24-28.75L187.24-28.75 192.94-28.75 203.24-19.05 203.24-11.5 193.54-20.65 193.54 0 187.24 0 187.24-28.75ZM221.69-28.75L221.69-28.75 216.04-28.75 205.69-19.05 205.69-11.5 215.39-20.65 215.39 0 221.69 0 221.69-28.75ZM262.73-28.8L262.73-0.05 256.88-0.05 256.88-11.4 246.53-11.4 246.53-17.25 256.88-17.25 256.88-28.8 262.73-28.8ZM244.88-28.6L238.03-17.25 244.08-17.25 244.08-11.4 227.68-11.4 238.03-28.6 244.88-28.6ZM300.03-9.7L300.03-3.45 294.33 0 286.28 0 286.28-5.25 293.98-5.25 293.98-9.3 286.43-9.3 286.43-13.2 294.33-13.2 300.03-9.7ZM270.23-12.75L270.23-18.4 275.93-21.85 284.03-21.85 284.03-17.2 276.53-17.2 276.53-13.2 284.03-13.2 284.03-9.3 275.93-9.3 270.23-12.75ZM270.23-6.95L276.53-6.95 276.53-5.25 284.03-5.25 284.03 0 275.93 0 270.23-3.45 270.23-6.95ZM300.03-15.05L293.78-15.05 293.78-17.2 286.28-17.2 286.28-21.85 294.33-21.85 300.03-18.4 300.03-15.05ZM317.53-17.2L317.53-21.85 325.03-21.85 325.03-17.2 317.53-17.2ZM325.03-7.5L331.33-7.5 331.33-3.45 325.63 0 317.53 0 317.53-5.25 325.03-5.25 325.03-7.5ZM304.53-19.35L315.28-25.3 315.28-5.25 315.28 0 309.03-3.45 309.03-17.2 304.53-17.15 304.53-19.35ZM367.03-18.55L367.03-12.85 361.13-9.4 353.13-9.4 353.13-13.25 360.68-13.25 360.68-17.35 353.13-17.35 353.13-22.05 361.13-22.05 367.03-18.55ZM360.48-6.95L367.03-6.95 367.03-3.45 361.13 0 353.13 0 353.13-5.3 360.48-5.3 360.48-6.95ZM336.83-18.55L336.83-3.45 342.73 0 350.68 0 350.68-5.3 343.13-5.3 343.13-9.4 350.68-9.4 350.68-13.25 343.13-13.25 343.13-17.35 350.68-17.35 350.68-22.05 342.73-22.05 336.83-18.55ZM376.02 0L376.02-21.85 382.27-21.85 382.27-19.7 389.77-21.85 389.77-17.2 382.27-17.2 382.27 0 376.02 0ZM398.52-15.05L398.52-19.1 392.02-21.85 392.02-15.05 398.52-15.05Z" opacity="1" transform="matrix(1,0,0,1,0,0)" fill="black" class="wordmark-text-0" id="SvgjsPath1100"></path></svg></g></svg></g></svg></g></svg></g></svg></g></svg></g></svg></g></svg></g><defs><mask></mask></defs></svg><rect width="395.52" height="247.2" fill="black" stroke="none" visibility="hidden"></rect></g></mask></svg><rect width="395.52" height="247.2" fill="black" stroke="none" visibility="hidden"></rect></g></mask><linearGradient x1="0" x2="1" y1="0.5" y2="0.5" id="9ec637eb-e00a-413a-80c0-e282373753b4"><stop stop-color="#f00b51" offset="0"></stop><stop stop-color="#730062" offset="1"></stop></linearGradient></svg><rect width="395.52" height="247.2" fill="none" stroke="none" visibility="hidden"></rect></g></svg></g></svg>